<svg width="329" zoomAndPan="magnify" viewBox="54 127.5 246.75 55.5" height="74" preserveAspectRatio="xMidYMid meet" version="1.0" id="svg68" sodipodi:docname="Logo-3.svg" inkscape:version="1.4 (e7c3feb1, 2024-10-09)" xmlns:inkscape="http://www.inkscape.org/namespaces/inkscape" xmlns:sodipodi="http://sodipodi.sourceforge.net/DTD/sodipodi-0.dtd" xmlns="http://www.w3.org/2000/svg" xmlns:svg="http://www.w3.org/2000/svg" style="">
  <sodipodi:namedview id="namedview68" pagecolor="#ffffff" bordercolor="#000000" borderopacity="0.25" inkscape:showpageshadow="2" inkscape:pageopacity="0.0" inkscape:pagecheckerboard="0" inkscape:deskcolor="#d1d1d1" inkscape:zoom="0.71915353" inkscape:cx="281.58104" inkscape:cy="249.599" inkscape:window-width="1104" inkscape:window-height="616" inkscape:window-x="0" inkscape:window-y="31" inkscape:window-maximized="0" inkscape:current-layer="svg68"/>
  <defs id="defs4">
    <g id="g1"/>
    <clipPath id="fa21542079">
      <path d="M 70.179688 134.898438 L 115.929688 134.898438 L 115.929688 177.648438 L 70.179688 177.648438 Z M 70.179688 134.898438 " clip-rule="nonzero" id="path1"/>
    </clipPath>
    <clipPath id="fab8d54159">
      <path d="M 70.179688 156.429688 C 70.179688 162.140625 72.445312 167.617188 76.484375 171.65625 C 80.523438 175.691406 86 177.960938 91.710938 177.960938 L 94.457031 177.960938 C 100.167969 177.960938 105.644531 175.691406 109.683594 171.65625 C 113.71875 167.617188 115.988281 162.140625 115.988281 156.429688 C 115.988281 150.71875 113.71875 145.242188 109.683594 141.207031 C 105.644531 137.167969 100.167969 134.898438 94.457031 134.898438 L 91.710938 134.898438 C 86 134.898438 80.523438 137.167969 76.484375 141.207031 C 72.445312 145.242188 70.179688 150.71875 70.179688 156.429688 Z M 70.179688 156.429688 " clip-rule="nonzero" id="path2"/>
    </clipPath>
    <clipPath id="94d0d1e410">
      <path d="M 53.910156 232.441406 L 99.660156 232.441406 L 99.660156 275.191406 L 53.910156 275.191406 Z M 53.910156 232.441406 " clip-rule="nonzero" id="path3"/>
    </clipPath>
    <clipPath id="c0ab514126">
      <path d="M 53.910156 253.972656 C 53.910156 259.683594 56.179688 265.160156 60.214844 269.199219 C 64.253906 273.234375 69.730469 275.503906 75.441406 275.503906 L 78.1875 275.503906 C 83.898438 275.503906 89.375 273.234375 93.414062 269.199219 C 97.449219 265.160156 99.71875 259.683594 99.71875 253.972656 C 99.71875 248.261719 97.449219 242.785156 93.414062 238.75 C 89.375 234.710938 83.898438 232.441406 78.1875 232.441406 L 75.441406 232.441406 C 69.730469 232.441406 64.253906 234.710938 60.214844 238.75 C 56.179688 242.785156 53.910156 248.261719 53.910156 253.972656 Z M 53.910156 253.972656 " clip-rule="nonzero" id="path4"/>
    </clipPath>
  </defs>
  <g clip-path="url(#fa21542079)" id="g6">
    <g clip-path="url(#fab8d54159)" id="g5">
      <path fill="#f6f6f6" d="M 115.988281 156.425781 C 115.988281 161.875 114.085938 166.878906 110.910156 170.808594 C 110.722656 171.039062 110.535156 171.261719 110.339844 171.484375 C 109.074219 172.9375 107.625 174.226562 106.035156 175.320312 C 105.746094 175.519531 105.453125 175.710938 105.152344 175.894531 C 104.089844 176.554688 102.972656 177.132812 101.800781 177.613281 C 101.511719 177.734375 101.21875 177.847656 100.921875 177.953125 L 100.921875 177.015625 C 101.21875 176.902344 101.511719 176.78125 101.800781 176.65625 C 102.976562 176.152344 104.097656 175.546875 105.152344 174.851562 C 105.453125 174.65625 105.746094 174.453125 106.035156 174.242188 C 107.367188 173.273438 108.585938 172.15625 109.667969 170.917969 C 109.859375 170.699219 110.050781 170.472656 110.234375 170.246094 C 113.28125 166.464844 115.105469 161.660156 115.105469 156.425781 C 115.105469 149.105469 111.53125 142.617188 106.035156 138.613281 C 105.746094 138.402344 105.453125 138.199219 105.152344 138.003906 C 104.097656 137.308594 102.976562 136.703125 101.800781 136.199219 L 101.800781 164.320312 L 100.921875 163.582031 L 85.242188 150.425781 L 85.242188 177.953125 C 84.945312 177.847656 84.652344 177.734375 84.363281 177.613281 C 83.195312 177.132812 82.074219 176.554688 81.011719 175.894531 C 80.710938 175.710938 80.417969 175.519531 80.128906 175.320312 C 74.121094 171.191406 70.179688 164.269531 70.179688 156.425781 C 70.179688 150.980469 72.082031 145.976562 75.257812 142.042969 C 75.441406 141.816406 75.628906 141.589844 75.824219 141.371094 C 77.089844 139.917969 78.539062 138.628906 80.128906 137.535156 C 80.417969 137.335938 80.710938 137.144531 81.011719 136.960938 C 82.074219 136.300781 83.195312 135.722656 84.363281 135.242188 C 84.652344 135.121094 84.945312 135.007812 85.242188 134.902344 L 85.242188 135.839844 C 84.945312 135.953125 84.652344 136.074219 84.363281 136.199219 C 83.1875 136.703125 82.066406 137.308594 81.011719 138.003906 C 80.710938 138.199219 80.417969 138.402344 80.128906 138.613281 C 78.796875 139.582031 77.578125 140.699219 76.496094 141.9375 C 76.304688 142.15625 76.113281 142.382812 75.929688 142.609375 C 72.882812 146.390625 71.058594 151.195312 71.058594 156.425781 C 71.058594 163.75 74.632812 170.238281 80.128906 174.242188 C 80.417969 174.453125 80.710938 174.65625 81.011719 174.851562 C 82.066406 175.546875 83.1875 176.152344 84.363281 176.65625 L 84.363281 148.535156 L 85.242188 149.273438 L 100.921875 162.429688 L 100.921875 134.902344 C 101.21875 135.007812 101.511719 135.121094 101.800781 135.242188 C 102.972656 135.722656 104.089844 136.300781 105.152344 136.960938 C 105.453125 137.144531 105.746094 137.335938 106.035156 137.535156 C 112.042969 141.664062 115.988281 148.585938 115.988281 156.425781 " fill-opacity="1" fill-rule="nonzero" id="path5"/>
    </g>
  </g>
  <g fill="#f6f6f6" fill-opacity="1" id="g9">
    <g transform="translate(119.593004, 166.711467)" id="g8">
      <g id="g7">
        <path d="M 13.046875 0 L 13.046875 -21 L 15.296875 -21 L 15.296875 -1.984375 Z M 3.75 -21 L 3.75 -2.4375 L 1.5 -2.4375 L 1.5 -21 Z M 3.75 0 L 1.5 -2.125 L 12.75 -2.125 L 12.75 0 Z M 3.75 0 " id="path6"/>
      </g>
    </g>
  </g>
  <g fill="#f6f6f6" fill-opacity="1" id="g12">
    <g transform="translate(136.392987, 166.711467)" id="g11">
      <g id="g10">
        <path d="M 9.875 -18.5625 L 9.875 0 L 7.625 0 L 7.625 -18.5625 Z M 1.5 -18.875 L 1.5 -21 L 16.140625 -21 L 16.140625 -18.875 Z M 1.5 -18.875 " id="path9"/>
      </g>
    </g>
  </g>
  <g fill="#f6f6f6" fill-opacity="1" id="g15">
    <g transform="translate(154.032967, 166.711467)" id="g14">
      <g id="g13">
        <path d="M 15.0625 0 L 12.296875 0 L 4.796875 -9.71875 L 7.65625 -9.71875 Z M 1.5 0 L 1.5 -18.5625 L 3.75 -18.5625 L 3.75 0 Z M 1.5 -18.875 L 1.5 -21 L 12.90625 -21 L 12.90625 -18.875 Z M 4.765625 -10.015625 L 7.015625 -12.15625 L 15.453125 -12.15625 L 13.203125 -10.015625 Z M 13.203125 -12.453125 L 13.203125 -21 L 15.453125 -18.875 L 15.453125 -12.453125 Z M 13.203125 -12.453125 " id="path12"/>
      </g>
    </g>
  </g>
  <g fill="#f6f6f6" fill-opacity="1" id="g18">
    <g transform="translate(170.982948, 166.711467)" id="g17">
      <g id="g16">
        <path d="M 8.375 -18.546875 L 8.375 -2.453125 L 6.125 -2.453125 L 6.125 -18.546875 Z M 1.5 -18.84375 L 1.5 -21 L 13.140625 -21 L 13.140625 -18.84375 Z M 1.5 0 L 1.5 -2.15625 L 13.140625 -2.15625 L 13.140625 0 Z M 1.5 0 " id="path15"/>
      </g>
    </g>
  </g>
  <g fill="#f6f6f6" fill-opacity="1" id="g21">
    <g transform="translate(185.622938, 166.711467)" id="g20">
      <g id="g19">
        <path d="M 12.390625 -11.40625 L 12.390625 -21 L 14.640625 -18.875 L 14.640625 -11.40625 Z M 3.75 -18.546875 L 3.75 -11.40625 L 1.5 -11.40625 L 1.5 -18.546875 Z M 1.5 -18.875 L 3.75 -21 L 12.0625 -21 L 12.0625 -18.875 Z M 1.5 -8.96875 L 1.5 -11.09375 L 14.640625 -11.09375 L 14.640625 -8.96875 Z M 12.390625 0 L 12.390625 -8.640625 L 14.640625 -8.640625 L 14.640625 0 Z M 3.75 -8.640625 L 3.75 0 L 1.5 0 L 1.5 -8.640625 Z M 3.75 -8.640625 " id="path18"/>
      </g>
    </g>
  </g>
  <g fill="#f6f6f6" fill-opacity="1" id="g24">
    <g transform="translate(201.762918, 166.711467)" id="g23">
      <g id="g22">
        <path d="M 8.375 -18.546875 L 8.375 -2.453125 L 6.125 -2.453125 L 6.125 -18.546875 Z M 1.5 -18.84375 L 1.5 -21 L 13.140625 -21 L 13.140625 -18.84375 Z M 1.5 0 L 1.5 -2.15625 L 13.140625 -2.15625 L 13.140625 0 Z M 1.5 0 " id="path21"/>
      </g>
    </g>
  </g>
  <g fill="#f6f6f6" fill-opacity="1" id="g27">
    <g transform="translate(216.402909, 166.711467)" id="g26">
      <g id="g25">
        <path d="M 1.5 0 L 1.5 -21 L 3.75 -21 L 3.75 0 Z M 4.046875 0 L 4.046875 -2.125 L 15.328125 -2.125 L 15.328125 0 Z M 4.046875 0 " id="path24"/>
      </g>
    </g>
  </g>
  <g fill="#f6f6f6" fill-opacity="1" id="g30">
    <g transform="translate(233.232886, 166.711467)" id="g29">
      <g id="g28">
        <path d="M 9.09375 -12.9375 L 7.765625 -10.921875 L 1.203125 -21 L 3.8125 -21 Z M 10.3125 -10.3125 L 10.3125 0 L 8.0625 0 L 8.0625 -10.921875 L 14.671875 -21 L 17.28125 -21 Z M 10.3125 -10.3125 " id="path27"/>
      </g>
    </g>
  </g>
  <g fill="#f6f6f6" fill-opacity="1" id="g33">
    <g transform="translate(251.712873, 166.711467)" id="g32">
      <g id="g31">
        <path d="M 17.453125 -2.125 L 17.453125 0 L 1.5 0 L 2.796875 -2.125 Z M 1.953125 -18.875 L 1.953125 -21 L 14.0625 -21 L 12.78125 -18.875 Z M 5.609375 -2.4375 L 3 -2.4375 L 14.375 -21 L 16.984375 -21 Z M 5.609375 -2.4375 " id="path30"/>
      </g>
    </g>
  </g>
  <g fill="#f6f6f6" fill-opacity="1" id="g36">
    <g transform="translate(270.972855, 166.711467)" id="g35">
      <g id="g34">
        <path d="M 3.75 -18.5625 L 3.75 -12.1875 L 12.90625 -12.1875 L 12.90625 -10.046875 L 3.75 -10.046875 L 3.75 0 L 1.5 -2.125 L 1.5 -10.046875 L 2.640625 -11.125 L 1.5 -12.1875 L 1.5 -18.5625 Z M 15.421875 -21 L 15.421875 -18.875 L 1.5 -18.875 L 3.75 -21 Z M 15.453125 -2.125 L 15.453125 0 L 4.046875 0 L 4.046875 -2.125 Z M 15.453125 -2.125 " id="path33"/>
      </g>
    </g>
  </g>
</svg>