<svg xmlns="http://www.w3.org/2000/svg" xmlns:xlink="http://www.w3.org/1999/xlink" width="500" zoomAndPan="magnify" viewBox="0 0 375 374.999991" height="500" preserveAspectRatio="xMidYMid meet" version="1.0"><defs><clipPath id="1918e13fdd"><path d="M 87.621094 93.613281 L 287.121094 93.613281 L 287.121094 281.113281 L 87.621094 281.113281 Z M 87.621094 93.613281 " clip-rule="nonzero"/></clipPath><clipPath id="c395f2aea3"><path d="M 87.621094 187.5 C 87.621094 239.351562 129.65625 281.386719 181.507812 281.386719 L 193.492188 281.386719 C 245.34375 281.386719 287.378906 239.351562 287.378906 187.5 C 287.378906 135.648438 245.34375 93.613281 193.492188 93.613281 L 181.507812 93.613281 C 129.65625 93.613281 87.621094 135.648438 87.621094 187.5 Z M 87.621094 187.5 " clip-rule="nonzero"/></clipPath></defs><g clip-path="url(#1918e13fdd)"><g clip-path="url(#c395f2aea3)"><path fill="#f6f6f6" d="M 287.375 187.496094 C 287.375 211.253906 279.082031 233.074219 265.230469 250.214844 C 264.425781 251.214844 263.601562 252.191406 262.757812 253.15625 C 257.234375 259.488281 250.921875 265.113281 243.976562 269.882812 C 242.71875 270.75 241.4375 271.585938 240.136719 272.390625 C 235.503906 275.273438 230.621094 277.78125 225.523438 279.882812 C 224.257812 280.40625 222.976562 280.902344 221.683594 281.371094 L 221.683594 277.273438 C 222.976562 276.78125 224.257812 276.257812 225.523438 275.710938 C 230.640625 273.503906 235.527344 270.863281 240.136719 267.835938 C 241.441406 266.980469 242.71875 266.097656 243.976562 265.179688 C 249.785156 260.949219 255.097656 256.085938 259.820312 250.6875 C 260.664062 249.722656 261.484375 248.742188 262.289062 247.746094 C 275.578125 231.269531 283.535156 210.316406 283.535156 187.496094 C 283.535156 155.566406 267.953125 127.277344 243.976562 109.816406 C 242.71875 108.898438 241.441406 108.011719 240.136719 107.160156 C 235.527344 104.132812 230.640625 101.488281 225.523438 99.285156 L 225.523438 221.910156 L 221.683594 218.6875 L 153.3125 161.316406 L 153.3125 281.371094 C 152.019531 280.902344 150.738281 280.40625 149.472656 279.882812 C 144.375 277.78125 139.488281 275.273438 134.859375 272.390625 C 133.554688 271.585938 132.277344 270.75 131.015625 269.882812 C 104.808594 251.882812 87.621094 221.695312 87.621094 187.496094 C 87.621094 163.738281 95.914062 141.921875 109.765625 124.777344 C 110.566406 123.78125 111.390625 122.800781 112.234375 121.839844 C 117.761719 115.507812 124.070312 109.882812 131.015625 105.113281 C 132.277344 104.246094 133.554688 103.410156 134.859375 102.605469 C 139.488281 99.722656 144.375 97.214844 149.472656 95.113281 C 150.738281 94.589844 152.019531 94.09375 153.3125 93.625 L 153.3125 97.722656 C 152.015625 98.214844 150.738281 98.734375 149.472656 99.285156 C 144.351562 101.488281 139.464844 104.132812 134.859375 107.160156 C 133.554688 108.011719 132.273438 108.898438 131.015625 109.816406 C 125.210938 114.046875 119.894531 118.910156 115.175781 124.308594 C 114.332031 125.269531 113.507812 126.25 112.707031 127.246094 C 99.417969 143.726562 91.460938 164.679688 91.460938 187.496094 C 91.460938 219.429688 107.042969 247.71875 131.015625 265.179688 C 132.273438 266.097656 133.554688 266.980469 134.859375 267.835938 C 139.464844 270.863281 144.351562 273.503906 149.472656 275.710938 L 149.472656 153.085938 L 153.3125 156.304688 L 221.683594 213.675781 L 221.683594 93.625 C 222.976562 94.09375 224.257812 94.589844 225.523438 95.113281 C 230.621094 97.214844 235.503906 99.722656 240.136719 102.605469 C 241.4375 103.410156 242.71875 104.246094 243.976562 105.113281 C 270.1875 123.113281 287.375 153.296875 287.375 187.496094 " fill-opacity="1" fill-rule="nonzero"/></g></g></svg>