<?xml version="1.0" encoding="UTF-8"?>
<svg version="1.1" xmlns="http://www.w3.org/2000/svg" width="338" height="314">
<path d="M0 0 C6.3251079 5.73672577 8.46460256 15.03962024 11.21875 22.8984375 C11.51007813 23.713125 11.80140625 24.5278125 12.1015625 25.3671875 C12.3588916 26.10179199 12.6162207 26.83639648 12.88134766 27.59326172 C13.63910689 29.63223813 13.63910689 29.63223813 15.6875 31.4375 C17.56851973 32.09216952 19.47646794 32.67050488 21.39453125 33.20703125 C23.1105957 33.70493164 23.1105957 33.70493164 24.86132812 34.21289062 C27.27319439 34.90033077 29.68725678 35.5801153 32.10351562 36.25195312 C40.22982547 38.62916111 43.9845859 40.38312886 48.6875 47.4375 C49.24873779 52.14606639 49.19609941 56.76638765 47.8125 61.3125 C39.89292747 69.23207253 26.27393733 71.81667814 15.6875 74.4375 C15.0275 74.4375 14.3675 74.4375 13.6875 74.4375 C13.55214844 74.95054687 13.41679687 75.46359375 13.27734375 75.9921875 C11.57824088 82.03570309 9.50202024 87.93241191 7.3125 93.8125 C7.03269287 94.59737793 6.75288574 95.38225586 6.46459961 96.19091797 C4.2365304 102.05133876 1.71426522 104.99290751 -4.0625 107.75 C-9.8375362 108.97164227 -14.38465268 108.51264562 -19.5625 105.625 C-24.57445559 100.79253594 -26.50703542 93.17266418 -28.41796875 86.68359375 C-28.79566406 85.44738281 -29.17335937 84.21117187 -29.5625 82.9375 C-29.87703125 81.7928125 -30.1915625 80.648125 -30.515625 79.46875 C-34.91731842 72.04328458 -47.00469725 70.52380065 -54.84765625 68.2578125 C-60.80131906 66.39675437 -63.88568875 64.71701814 -67.3125 59.4375 C-68.66950028 55.36649916 -69.17881806 51.62798298 -67.55859375 47.53125 C-65.00319198 42.80125142 -62.53040977 40.19641342 -57.45922852 38.46118164 C-56.38084717 38.17621826 -55.30246582 37.89125488 -54.19140625 37.59765625 C-52.41733398 37.08428711 -52.41733398 37.08428711 -50.60742188 36.56054688 C-48.13179778 35.85711209 -45.64710283 35.1848075 -43.15429688 34.54492188 C-36.31184902 32.57614172 -36.31184902 32.57614172 -31.43896484 27.68652344 C-30.15490061 24.63122129 -29.17839969 21.63415524 -28.3125 18.4375 C-27.85749079 17.16427638 -27.39157172 15.89479293 -26.90625 14.6328125 C-26.5453125 13.61960937 -26.184375 12.60640625 -25.8125 11.5625 C-23.47900589 5.49250753 -21.53634231 1.1226903 -15.5625 -2 C-9.87097196 -2.98507216 -5.23429387 -2.46900654 0 0 Z M-13.88500977 10.14672852 C-15.38424765 12.55263736 -16.3070525 14.78177204 -17.21484375 17.46484375 C-17.71467773 18.90053711 -17.71467773 18.90053711 -18.22460938 20.36523438 C-18.90660493 22.3670537 -19.58630418 24.36965686 -20.26367188 26.37304688 C-20.59818359 27.33146484 -20.93269531 28.28988281 -21.27734375 29.27734375 C-21.5724585 30.14738037 -21.86757324 31.01741699 -22.17163086 31.91381836 C-24.13891359 36.26558416 -26.04487371 38.83657786 -30.4128418 40.90722656 C-32.19428589 41.48682129 -32.19428589 41.48682129 -34.01171875 42.078125 C-34.64737259 42.29063904 -35.28302643 42.50315308 -35.9379425 42.72210693 C-37.95388485 43.39281239 -39.97624832 44.04078616 -42 44.6875 C-44.03266811 45.35312977 -46.06376441 46.02331054 -48.0941925 46.69573975 C-49.92698769 47.30018135 -51.76358691 47.89305153 -53.6003418 48.48535156 C-56.19613982 49.17681998 -56.19613982 49.17681998 -57.3125 50.4375 C-57.35313832 52.10367115 -57.355221 53.77138095 -57.3125 55.4375 C-50.41786582 58.70544702 -43.49549007 61.02358339 -36.15429688 63.06054688 C-31.15095472 64.54496609 -26.48769861 66.06574662 -23.3125 70.4375 C-21.38255543 74.55815235 -19.96414169 78.80042259 -18.5625 83.125 C-17.80160406 85.40132581 -17.0362014 87.6761517 -16.265625 89.94921875 C-15.93723633 90.95428467 -15.60884766 91.95935059 -15.27050781 92.99487305 C-14.44959328 95.56714288 -14.44959328 95.56714288 -12.3125 97.4375 C-9.22902174 97.60431109 -9.22902174 97.60431109 -6.3125 97.4375 C-2.85343017 90.85313024 -0.33177893 84.18983803 2.04296875 77.15234375 C3.927409 71.80599064 5.50924111 67.98647094 10.8515625 65.3828125 C11.66367188 65.11210937 12.47578125 64.84140625 13.3125 64.5625 C14.25996094 64.24023438 15.20742187 63.91796875 16.18359375 63.5859375 C17.33988281 63.20695312 18.49617188 62.82796875 19.6875 62.4375 C21.26204579 61.90982903 22.8362406 61.38111007 24.41015625 60.8515625 C28.83171224 59.36726383 33.25843706 57.89923695 37.6875 56.4375 C38.0175 54.4575 38.3475 52.4775 38.6875 50.4375 C31.33556368 46.95756088 23.83594997 44.44750423 16.06445312 42.08203125 C14.72350586 41.65470703 14.72350586 41.65470703 13.35546875 41.21875 C12.15313599 40.8484668 12.15313599 40.8484668 10.92651367 40.47070312 C7.12718285 38.7174845 5.17761089 36.50416684 3.43896484 32.72021484 C3.09559082 31.70652832 2.7522168 30.6928418 2.3984375 29.6484375 C1.82222656 27.98941406 1.82222656 27.98941406 1.234375 26.296875 C0.84765625 25.14703125 0.4609375 23.9971875 0.0625 22.8125 C-0.71632581 20.52692621 -1.49994549 18.24297859 -2.2890625 15.9609375 C-2.63018066 14.94950684 -2.97129883 13.93807617 -3.32275391 12.89599609 C-4.17621374 10.31253672 -4.17621374 10.31253672 -6.3125 8.4375 C-10.58217017 7.79326732 -10.58217017 7.79326732 -13.88500977 10.14672852 Z " fill="#FDFCF9" transform="translate(160.3125,86.5625)"/>
<path d="M0 0 C3.88749529 2.02825841 5.6713628 3.26273982 7.4765625 7.3125 C7.85554688 8.529375 8.23453125 9.74625 8.625 11 C10.01926863 14.86722462 11.13209113 17.50149036 14.8359375 19.62890625 C16.92182349 20.24437138 19.02614551 20.80087169 21.14453125 21.29296875 C25.31590992 22.32582722 27.17284616 23.79079834 30 27 C31.45005697 30.92368358 31.10011828 32.68910639 29.8125 36.6875 C27.99925272 40.00136572 27.12946039 41.08544278 24 43 C22.05040563 43.49418687 20.09079931 43.94982712 18.125 44.375 C14.01829214 45.64244082 12.41742613 46.35328346 10.05859375 50.0078125 C9.08715096 52.2753578 8.18859938 54.57604404 7.37890625 56.90625 C5.79244487 60.46567611 4.23166818 61.88390768 1 64 C-2.7152782 65.18572709 -4.4397306 65.20169698 -8.125 63.875 C-11.93183548 61.39228121 -14.42319219 59.13489231 -15.640625 54.62890625 C-16.46913634 51.66301194 -17.21844654 49.53014047 -19 47 C-22.51450793 45.27678485 -25.90199671 44.21293518 -29.6875 43.23046875 C-33.52458955 41.80513478 -34.8268639 40.4141801 -37 37 C-38.17556247 33.31657093 -38.18647847 31.54846608 -36.9375 27.875 C-34.58598824 24.38565997 -32.72950736 22.96646752 -29 21 C-28.20722656 20.86207031 -27.41445312 20.72414063 -26.59765625 20.58203125 C-23.63676746 20.06109292 -21.58908881 19.56106825 -19 18 C-17.0243271 14.46389518 -15.79525536 11.20223327 -14.546875 7.34765625 C-11.6059514 0.9830817 -6.76152863 -0.96593266 0 0 Z M-5 11 C-5.29132813 11.89203125 -5.58265625 12.7840625 -5.8828125 13.703125 C-9.22352379 23.24201132 -9.22352379 23.24201132 -12.625 26.5625 C-17.3516799 28.57571551 -22.12812625 30.37026287 -27 32 C-24.10713985 33.92857343 -21.84278236 34.76654837 -18.5625 35.8125 C-13.97545731 37.47228518 -11.40528538 38.57427491 -9 43 C-7.55684621 46.29646709 -6.23389584 49.61991299 -5 53 C-4.01 53 -3.02 53 -2 53 C-1.69707031 52.18015625 -1.39414063 51.3603125 -1.08203125 50.515625 C-0.66308594 49.43796875 -0.24414062 48.3603125 0.1875 47.25 C0.59355469 46.18265625 0.99960938 45.1153125 1.41796875 44.015625 C3.77272059 39.52706099 6.46050035 37.62584428 11.11328125 35.734375 C12.69689453 35.24710938 12.69689453 35.24710938 14.3125 34.75 C15.38113281 34.41484375 16.44976562 34.0796875 17.55078125 33.734375 C18.35902344 33.49203125 19.16726562 33.2496875 20 33 C17.43265645 30.43265645 15.05930744 29.90763172 11.625 28.75 C5.34955778 26.37513518 5.34955778 26.37513518 2.4375 23.25 C1.963125 22.1775 1.48875 21.105 1 20 C0.63519531 19.21367188 0.27039063 18.42734375 -0.10546875 17.6171875 C-1.11156201 15.42644518 -2.07078198 13.22419208 -3 11 C-3.66 11 -4.32 11 -5 11 Z " fill="#FDFCF9" transform="translate(217,56)"/>
<path d="M0 0 C3.48155363 1.49209441 4.83767951 2.75390119 6.9375 5.9375 C9.24079588 9.35754539 11.58363296 10.77193454 15 13 C17.13786842 15.60262242 17.13030496 17.74641635 16.9375 21 C16.43860618 24.17531243 16.15825056 24.84614528 13.75 27.1875 C12.8425 27.785625 11.935 28.38375 11 29 C8.56201472 31.37852222 6.18661934 33.80804867 3.8125 36.25 C1.79272283 38.20012968 0.7939579 38.97854168 -2.0234375 39.0546875 C-8.40376065 38.5671545 -8.40376065 38.5671545 -11.5625 35.5625 C-13 33 -13 33 -13 31 C-13.556875 30.7525 -14.11375 30.505 -14.6875 30.25 C-18.04043581 28.43760226 -21.26557246 26.46885508 -23 23 C-23.51670251 18.52191162 -23.39861247 16.58083532 -20.8125 12.8125 C-18.31244626 10.31244626 -15.78953409 8.16188892 -13 6 C-12.113125 5.113125 -11.22625 4.22625 -10.3125 3.3125 C-6.84679282 -0.15320718 -4.84866831 -0.38028771 0 0 Z M-4 11 C-4.61488281 11.72316406 -4.61488281 11.72316406 -5.2421875 12.4609375 C-5.78101563 13.09257812 -6.31984375 13.72421875 -6.875 14.375 C-7.40867188 15.00148437 -7.94234375 15.62796875 -8.4921875 16.2734375 C-9.61432007 17.55836651 -10.79371975 18.79371975 -12 20 C-11.51789063 20.40992188 -11.03578125 20.81984375 -10.5390625 21.2421875 C-9.90742188 21.78101563 -9.27578125 22.31984375 -8.625 22.875 C-7.99851563 23.40867188 -7.37203125 23.94234375 -6.7265625 24.4921875 C-5.44163349 25.61432007 -4.20628025 26.79371975 -3 28 C-0.06799526 25.14723863 2.64315404 22.34920216 5 19 C4.2575 18.4225 3.515 17.845 2.75 17.25 C0.33912357 15.27746474 -1.84042701 13.23955718 -4 11 Z " fill="#FDFCF9" transform="translate(154,120)"/>
</svg>
