<svg width="18" height="18" viewBox="0 0 18 18" xmlns="http://www.w3.org/2000/svg">
  <path d="M17.64 9.2c0-.63-.06-1.23-.16-1.8H9v3.4h4.84c-.21 1.1-.84 2.04-1.8 2.67v2.22h2.92c1.71-1.57 2.68-3.89 2.68-6.49z" fill="#4285F4"/>
  <path d="M9 18c2.43 0 4.47-.8 5.96-2.17l-2.92-2.22c-.81.55-1.84.89-3.04.89-2.34 0-4.32-1.58-5.03-3.71H.96V13c1.49 2.95 4.55 5 8.04 5z" fill="#34A853"/>
  <path d="M3.97 10.79c-.18-.55-.29-1.13-.29-1.74s.11-1.2.29-1.74V5.09H.96A8.97 8.97 0 0 0 0 9.05c0 1.44.34 2.8.96 3.96l3.01-2.22z" fill="#FBBC05"/>
  <path d="M9 3.58c1.32 0 2.5.46 3.43 1.35l2.57-2.57C13.46.91 11.43 0 9 0 5.51 0 2.45 2.05.96 5.09l3.01 2.22C4.68 5.16 6.66 3.58 9 3.58z" fill="#EA4335"/>
</svg>
