<?xml version="1.0" encoding="UTF-8"?>
<svg version="1.1" xmlns="http://www.w3.org/2000/svg" width="308" height="234">
<path d="M0 0 C3.5753733 1.48748511 6.18409073 3.81976013 9.01953125 6.38671875 C10.26930036 7.4885432 11.51930691 8.59009837 12.76953125 9.69140625 C13.40375 10.25569336 14.03796875 10.81998047 14.69140625 11.40136719 C17.60161274 13.97635877 20.56180051 16.49165649 23.51953125 19.01171875 C30.32624485 24.84220506 37.11641801 30.69172254 43.87060547 36.58300781 C44.97203583 37.54271347 46.0750991 38.50054995 47.18017578 39.45605469 C48.59042994 40.67665239 49.99276059 41.90638767 51.39453125 43.13671875 C52.16410156 43.80832031 52.93367188 44.47992188 53.7265625 45.171875 C57.00896371 48.53720003 57.83139446 51.37248999 57.87255859 56.02294922 C57.8853183 57.00431854 57.898078 57.98568787 57.91122437 58.99679565 C57.91345001 60.05101715 57.91567566 61.10523865 57.91796875 62.19140625 C57.92795395 63.82627487 57.92795395 63.82627487 57.93814087 65.49417114 C57.94826249 67.79899407 57.95295804 70.10384628 57.95263672 72.40869141 C57.95700641 75.92920401 57.99332327 79.44845945 58.03125 82.96875 C58.03711896 85.20963114 58.04108782 87.45051822 58.04296875 89.69140625 C58.05733978 90.74157928 58.07171082 91.79175232 58.08651733 92.87374878 C58.0488335 98.92246623 57.63404784 102.47460674 53.58203125 107.07421875 C48.27391533 110.78989989 41.08070063 110.22301602 34.85791016 110.21948242 C33.57376976 110.22452034 33.57376976 110.22452034 32.26368713 110.22966003 C29.44530774 110.23912663 26.62698803 110.24111094 23.80859375 110.2421875 C21.84093197 110.24540289 19.87327042 110.24876717 17.90560913 110.25227356 C13.78504889 110.25825397 9.66450959 110.26011456 5.54394531 110.25952148 C0.27613675 110.25941989 -4.99153696 110.27307472 -10.25931358 110.29029369 C-14.32234305 110.30143704 -18.38534015 110.30343998 -22.44838333 110.30291176 C-24.38995453 110.30408825 -26.33152666 110.30849137 -28.27308273 110.31624413 C-30.99383626 110.32609187 -33.71429994 110.32314722 -36.43505859 110.31713867 C-37.22908585 110.32275818 -38.0231131 110.32837769 -38.84120178 110.33416748 C-44.36705392 110.30331211 -50.71298937 110.13597586 -55.2578125 106.671875 C-58.20726314 102.54684261 -59.53554188 99.6581609 -59.57910156 94.62207031 C-59.58870911 93.72393616 -59.59831665 92.825802 -59.60821533 91.90045166 C-59.61246521 90.93170105 -59.61671509 89.96295044 -59.62109375 88.96484375 C-59.62679382 87.96467224 -59.6324939 86.96450073 -59.6383667 85.934021 C-59.64781619 83.81572528 -59.65435048 81.69741486 -59.65820312 79.57910156 C-59.66788946 76.35064752 -59.69890574 73.12283535 -59.73046875 69.89453125 C-59.73700097 67.83463919 -59.74225058 65.77474258 -59.74609375 63.71484375 C-59.75844055 62.75419006 -59.77078735 61.79353638 -59.7835083 60.80377197 C-59.76117585 54.02654785 -59.00432807 48.9597465 -54.32421875 43.73828125 C-53.53015625 43.06539062 -52.73609375 42.3925 -51.91796875 41.69921875 C-51.02980469 40.93738281 -50.14164063 40.17554688 -49.2265625 39.390625 C-45.56682064 36.37222872 -41.89172989 33.37367396 -38.203125 30.390625 C-35.36265513 28.02821457 -32.63620976 25.57592847 -29.91796875 23.07421875 C-25.46995302 18.98634066 -20.9064663 15.1042261 -16.19140625 11.328125 C-14.24834659 9.74904694 -12.33917082 8.12777993 -10.45703125 6.4765625 C-9.01457031 5.22552734 -9.01457031 5.22552734 -7.54296875 3.94921875 C-6.24746094 2.80066406 -6.24746094 2.80066406 -4.92578125 1.62890625 C-2.41796875 0.07421875 -2.41796875 0.07421875 0 0 Z M-8.10546875 15.76171875 C-9.47255395 16.96235608 -10.83974435 18.16287363 -12.20703125 19.36328125 C-12.90731445 19.98106445 -13.60759766 20.59884766 -14.32910156 21.23535156 C-17.53069033 24.05376748 -20.75516976 26.84550486 -23.98046875 29.63671875 C-24.59349854 30.16797363 -25.20652832 30.69922852 -25.83813477 31.24658203 C-30.2316527 35.0527189 -34.63317233 38.84945429 -39.04296875 42.63671875 C-39.61088135 43.125354 -40.17879395 43.61398926 -40.76391602 44.11743164 C-43.13921071 46.1541606 -45.33662909 48.02829202 -48.06982422 49.5715332 C-51.75406663 53.49825071 -51.09678471 57.48137595 -51.01171875 62.67578125 C-51.01175903 63.70859222 -51.01179932 64.7414032 -51.01184082 65.80551147 C-51.0064839 67.98596288 -50.98889399 70.16641367 -50.95996094 72.34667969 C-50.91803468 75.69395526 -50.91889745 79.03922445 -50.92578125 82.38671875 C-50.91529163 84.5039203 -50.90235476 86.62111145 -50.88671875 88.73828125 C-50.88651733 89.74347809 -50.88631592 90.74867493 -50.8861084 91.78433228 C-50.87019653 92.71224579 -50.85428467 93.6401593 -50.83789062 94.59619141 C-50.82947144 95.41463531 -50.82105225 96.23307922 -50.81237793 97.07632446 C-50.6822229 97.73562958 -50.55206787 98.39493469 -50.41796875 99.07421875 C-46.46425583 101.71002736 -43.06834037 101.35448055 -38.48022461 101.33300781 C-37.56616348 101.33651245 -36.65210236 101.34001709 -35.71034241 101.34362793 C-32.6844222 101.35244144 -29.65873514 101.34659788 -26.6328125 101.33984375 C-24.53438777 101.34119039 -22.43596334 101.34313092 -20.33753967 101.34564209 C-15.93845654 101.34859274 -11.53945457 101.34429713 -7.14038086 101.33496094 C-1.49186471 101.32355946 4.15646154 101.3301307 9.80497074 101.34210587 C14.13798971 101.34932005 18.47096338 101.34703869 22.80398369 101.34185028 C24.88727274 101.34051292 26.97056587 101.34216449 29.05385017 101.34680939 C31.96057215 101.35186812 34.86698294 101.34417391 37.77368164 101.33300781 C38.64074738 101.33705627 39.50781311 101.34110474 40.40115356 101.34527588 C44.96872249 101.51949365 44.96872249 101.51949365 48.58203125 99.07421875 C50.3195682 91.70036686 49.91915979 83.87774595 49.98706055 76.34350586 C50.00868854 74.54057721 50.04284825 72.73775489 50.08959961 70.93530273 C50.15676701 68.31577421 50.18407494 65.69839415 50.203125 63.078125 C50.24487099 61.8809359 50.24487099 61.8809359 50.28746033 60.65956116 C50.26753165 55.19407589 48.91251117 52.44941159 45.12713623 48.51361084 C42.95386303 46.48902851 40.73807091 44.58762332 38.39453125 42.76171875 C34.49384485 39.65278196 30.7480353 36.45701219 27.08203125 33.07421875 C22.62422565 28.97151573 18.01987286 25.12118901 13.30078125 21.32421875 C9.5991342 18.26078671 6.08537465 15.00934817 2.578125 11.7265625 C-1.85426928 8.05747682 -4.62975148 12.67068658 -8.10546875 15.76171875 Z " fill="#FDFCF9" transform="translate(140.41796875,51.92578125)"/>
</svg>
