<?xml version="1.0" encoding="UTF-8"?>
<svg version="1.1" xmlns="http://www.w3.org/2000/svg" width="406" height="254">
<path d="M0 0 C8.60850815 5.95187655 17.662686 15.12850239 19.6328125 25.8203125 C19.6328125 26.8103125 19.6328125 27.8003125 19.6328125 28.8203125 C16.9615567 31.4915683 14.94620264 31.06600505 11.31390381 31.09136963 C10.42656555 31.08732117 9.53922729 31.08327271 8.625 31.07910156 C7.22486664 31.08435852 7.22486664 31.08435852 5.79644775 31.08972168 C2.70016113 31.09854952 -0.39589841 31.09268611 -3.4921875 31.0859375 C-5.63688196 31.08728385 -7.78157612 31.08922412 -9.92626953 31.09173584 C-14.42548523 31.09468853 -18.92462163 31.09038478 -23.42382812 31.08105469 C-29.20128695 31.06966011 -34.97855997 31.0762188 -40.75601196 31.08819962 C-45.18596811 31.09541429 -49.61587995 31.09313209 -54.0458374 31.08794403 C-56.17657493 31.08660645 -58.30731643 31.08825903 -60.43804932 31.09290314 C-63.41193351 31.0979619 -66.38551355 31.09026726 -69.359375 31.07910156 C-70.24671326 31.08315002 -71.13405151 31.08719849 -72.04827881 31.09136963 C-78.1386599 31.0488401 -78.1386599 31.0488401 -80.3671875 28.8203125 C-80.55371556 20.05349377 -74.31306901 12.61731484 -68.5546875 6.5078125 C-49.57468851 -11.34068655 -22.03059105 -12.78159656 0 0 Z M-66.37109375 15.35546875 C-68.34615696 17.79434328 -69.39001728 19.85710984 -70.3671875 22.8203125 C-68.46228648 24.72521352 -65.06314265 23.94815969 -62.54003906 23.94970703 C-61.82616028 23.95145935 -61.11228149 23.95321167 -60.37677002 23.95501709 C-58.00375983 23.9594377 -55.63082352 23.95649566 -53.2578125 23.953125 C-51.61212144 23.95379828 -49.96643047 23.9547685 -48.32073975 23.95602417 C-44.86388201 23.95750167 -41.40705006 23.95534604 -37.95019531 23.95068359 C-33.52385514 23.94500412 -29.09757585 23.94825364 -24.67123795 23.95425606 C-21.26885523 23.95787553 -17.86648685 23.95671639 -14.4641037 23.95412827 C-12.83265933 23.95346191 -11.20121365 23.95427725 -9.56977081 23.95660782 C-7.28378373 23.95915508 -4.99789393 23.95526374 -2.71191406 23.94970703 C-0.76118988 23.94851364 -0.76118988 23.94851364 1.22894287 23.94729614 C4.16999855 23.83757809 6.78002191 23.50789484 9.6328125 22.8203125 C6.77889641 13.40238939 -1.09422747 8.28350245 -9.3671875 3.8203125 C-29.90494776 -6.0176016 -50.85216722 -0.36210004 -66.37109375 15.35546875 Z " fill="#FDFCF9" transform="translate(231.3671875,128.1796875)"/>
<path d="M0 0 C5.94396346 5.67316786 9.09543437 11.48696515 9.5 19.8125 C9.28055361 27.1273797 7.03625595 32.63344006 2.1328125 38.0703125 C-4.29280748 44.04588906 -11.22530609 46.9712776 -20 47 C-28.84725946 46.35909616 -35.94266337 42.6677584 -41.875 36.0625 C-46.89394979 28.82930766 -48.16472779 22.78025566 -47 14 C-44.518423 5.91189719 -39.44605405 0.160344 -32.17578125 -4.05859375 C-21.66467282 -8.99527164 -8.86768337 -7.51868456 0 0 Z M-37.0625 9.8125 C-39.87535061 15.14790703 -40.80273112 20.15936306 -39.0625 26.0625 C-36.63108107 31.74328064 -31.79045334 35.3110414 -26.625 38.4375 C-19.94052142 39.86988827 -13.83904849 39.78001158 -7.8203125 36.33203125 C-2.84754542 32.69316092 0.87044943 28.14977532 2 22 C1.89718913 15.62572577 0.40394187 10.73726775 -4 6 C-9.33169929 2.09575921 -14.8561738 0.127023 -21.48046875 0.5234375 C-27.88536162 1.73490561 -33.3192941 4.35903623 -37.0625 9.8125 Z " fill="#FDFCF9" transform="translate(220,67)"/>
</svg>
